<svg width="642" height="243" viewBox="0 0 642 243" fill="none" xmlns="http://www.w3.org/2000/svg">
<path d="M617.462 226.351C613.221 226.351 609.655 225.002 606.764 222.303C604.065 219.412 602.716 215.846 602.716 211.605V82.9389C602.716 78.5054 604.065 74.9394 606.764 72.2408C609.655 69.5422 613.221 68.1928 617.462 68.1928C621.895 68.1928 625.461 69.5422 628.16 72.2408C630.858 74.9394 632.208 78.5054 632.208 82.9389V211.605C632.208 215.846 630.858 219.412 628.16 222.303C625.461 225.002 621.895 226.351 617.462 226.351Z" fill="#44E672"/>
<path d="M559.645 227.557C543.646 227.557 529.382 224.184 516.853 217.437C504.516 210.498 494.782 201.052 487.65 189.101C480.71 176.958 477.241 163.079 477.241 147.466C477.241 131.659 480.518 117.781 487.071 105.83C493.818 93.6861 503.07 84.2409 514.829 77.4943C526.587 70.555 540.08 67.0854 555.308 67.0854C570.343 67.0854 583.258 70.4587 594.052 77.2052C604.847 83.759 613.039 92.915 618.629 104.673C624.412 116.239 627.303 129.636 627.303 144.863C627.303 148.526 626.05 151.61 623.544 154.116C621.039 156.429 617.858 157.585 614.003 157.585H497.48V134.454H613.135L601.281 142.55C601.088 132.912 599.16 124.335 595.498 116.817C591.836 109.107 586.631 103.035 579.885 98.6014C573.138 94.1679 564.946 91.9512 555.308 91.9512C544.321 91.9512 534.875 94.3607 526.972 99.1797C519.262 103.999 513.383 110.649 509.335 119.13C505.287 127.419 503.263 136.864 503.263 147.466C503.263 158.067 505.673 167.513 510.492 175.801C515.311 184.09 521.961 190.644 530.442 195.463C538.923 200.281 548.658 202.691 559.645 202.691C565.62 202.691 571.692 201.631 577.861 199.51C584.222 197.197 589.33 194.595 593.185 191.704C596.076 189.583 599.16 188.523 602.437 188.523C605.907 188.33 608.895 189.294 611.401 191.415C614.677 194.306 616.412 197.486 616.605 200.956C616.798 204.426 615.256 207.414 611.979 209.919C605.425 215.124 597.233 219.365 587.402 222.641C577.764 225.918 568.512 227.557 559.645 227.557Z" fill="#44E672"/>
<path d="M627.254 226.4C623.013 226.4 619.447 225.051 616.556 222.352C613.857 219.461 612.508 215.895 612.508 211.654V82.9879C612.508 78.5545 613.857 74.9885 616.556 72.2899C619.447 69.5912 623.013 68.2419 627.254 68.2419C631.688 68.2419 635.254 69.5912 637.952 72.2899C640.651 74.9885 642 78.5545 642 82.9879V211.654C642 215.895 640.651 219.461 637.952 222.352C635.254 225.051 631.688 226.4 627.254 226.4Z" fill="#6EB883"/>
<path d="M639.54 230.492C639.54 237.271 634.044 242.767 627.265 242.767C620.486 242.767 614.99 237.271 614.99 230.492C614.99 223.713 620.486 218.217 627.265 218.217C634.044 218.217 639.54 223.713 639.54 230.492Z" fill="#44E672"/>
<path d="M422.021 226.973C406.986 226.973 393.396 223.503 381.253 216.564C369.302 209.432 359.76 199.794 352.628 187.65C345.689 175.507 342.219 161.821 342.219 146.593C342.219 131.365 345.4 117.775 351.761 105.824C358.314 93.6806 367.181 84.1391 378.361 77.1998C389.541 70.0677 402.167 66.5017 416.238 66.5017C427.611 66.5017 438.116 68.9111 447.754 73.7301C457.392 78.3563 465.488 84.7173 472.042 92.8132V14.746C472.042 10.3126 473.391 6.74654 476.09 4.04793C478.981 1.34931 482.547 0 486.788 0C491.221 0 494.787 1.34931 497.486 4.04793C500.185 6.74654 501.534 10.3126 501.534 14.746V146.593C501.534 161.821 497.968 175.507 490.836 187.65C483.896 199.794 474.451 209.432 462.5 216.564C450.549 223.503 437.056 226.973 422.021 226.973ZM422.021 200.951C431.852 200.951 440.622 198.638 448.333 194.011C456.043 189.192 462.115 182.639 466.548 174.35C470.982 166.061 473.198 156.809 473.198 146.593C473.198 136.184 470.982 126.931 466.548 118.836C462.115 110.74 456.043 104.379 448.333 99.7525C440.622 94.9335 431.852 92.524 422.021 92.524C412.383 92.524 403.613 94.9335 395.709 99.7525C387.999 104.379 381.831 110.74 377.205 118.836C372.771 126.931 370.554 136.184 370.554 146.593C370.554 156.809 372.771 166.061 377.205 174.35C381.831 182.639 387.999 189.192 395.709 194.011C403.613 198.638 412.383 200.951 422.021 200.951Z" fill="#44E672"/>
<path d="M276.129 242.767C260.108 242.767 245.713 239.405 232.943 232.682C220.405 225.727 210.421 215.642 202.991 202.428C195.794 189.214 192.195 172.985 192.195 153.743V68.1978C192.195 63.0975 193.82 58.9245 197.071 55.6789C200.553 52.2014 204.849 50.4627 209.957 50.4627C215.065 50.4627 219.244 52.2014 222.495 55.6789C225.977 58.9245 227.719 63.0975 227.719 68.1978V153.743C227.719 166.726 230.157 177.506 235.033 186.084C239.908 194.43 246.526 200.689 254.884 204.862C263.243 208.803 272.646 210.774 283.095 210.774C293.078 210.774 301.901 208.803 309.563 204.862C317.458 200.921 323.727 195.589 328.37 188.866C333.014 182.143 335.336 174.608 335.336 166.262H357.277C357.277 180.636 353.678 193.618 346.481 205.21C339.515 216.801 329.88 225.959 317.574 232.682C305.5 239.405 291.685 242.767 276.129 242.767ZM353.098 241.028C347.99 241.028 343.694 239.405 340.212 236.159C336.961 232.682 335.336 228.393 335.336 223.293V68.1978C335.336 62.8657 336.961 58.5768 340.212 55.3311C343.694 52.0855 347.99 50.4627 353.098 50.4627C358.438 50.4627 362.734 52.0855 365.984 55.3311C369.235 58.5768 370.86 62.8657 370.86 68.1978V223.293C370.86 228.393 369.235 232.682 365.984 236.159C362.734 239.405 358.438 241.028 353.098 241.028Z" fill="#44E672"/>
<path d="M207.601 226.689C203.36 226.689 199.794 225.34 196.903 222.641C194.204 219.75 192.855 216.184 192.855 211.943V129.25C192.855 117.106 189.867 108.143 183.892 102.36C177.916 96.3847 170.109 93.3969 160.471 93.3969C150.448 93.3969 142.159 96.8666 135.606 103.806C129.245 110.745 126.064 119.612 126.064 130.407H102.066C102.066 117.877 104.764 106.89 110.161 97.4448C115.559 87.8069 123.076 80.2893 132.714 74.8921C142.545 69.4949 153.725 66.7962 166.254 66.7962C177.241 66.7962 186.976 69.2057 195.457 74.0247C203.938 78.8436 210.492 85.9757 215.118 95.4209C219.937 104.673 222.347 115.95 222.347 129.25V211.943C222.347 216.184 220.998 219.75 218.299 222.641C215.6 225.34 212.034 226.689 207.601 226.689ZM14.746 226.689C10.5053 226.689 6.9393 225.34 4.04793 222.641C1.34931 219.75 0 216.184 0 211.943V83.2771C0 78.8436 1.34931 75.2776 4.04793 72.579C6.9393 69.8804 10.5053 68.5311 14.746 68.5311C19.1795 68.5311 22.7455 69.8804 25.4441 72.579C28.1427 75.2776 29.492 78.8436 29.492 83.2771V211.943C29.492 216.184 28.1427 219.75 25.4441 222.641C22.7455 225.34 19.1795 226.689 14.746 226.689ZM111.318 226.689C107.077 226.689 103.511 225.34 100.62 222.641C97.9213 219.75 96.572 216.184 96.572 211.943V129.25C96.572 117.106 93.5842 108.143 87.6087 102.36C81.6332 96.3847 73.8265 93.3969 64.1886 93.3969C54.1651 93.3969 45.8765 96.8666 39.3227 103.806C32.7689 110.745 29.492 119.612 29.492 130.407H11.2764C11.2764 117.877 13.7822 106.89 18.7939 97.4448C23.8057 87.8069 30.745 80.2893 39.6119 74.8921C48.4787 69.4949 58.5986 66.7962 69.9713 66.7962C80.9585 66.7962 90.6928 69.2057 99.1742 74.0247C107.656 78.8436 114.209 85.9757 118.836 95.4209C123.655 104.673 126.064 115.95 126.064 129.25V211.943C126.064 216.184 124.715 219.75 122.016 222.641C119.317 225.34 115.751 226.689 111.318 226.689Z" fill="#44E672"/>
<path d="M27.168 230.492C27.168 237.271 21.6724 242.767 14.8933 242.767C8.11417 242.767 2.61859 237.271 2.61859 230.492C2.61859 223.713 8.11417 218.217 14.8933 218.217C21.6724 218.217 27.168 223.713 27.168 230.492Z" fill="#6EB883"/>
<path d="M278.243 227.846C264.943 227.846 252.992 225.051 242.39 219.461C231.981 213.678 223.693 205.293 217.524 194.306C211.549 183.319 208.561 169.826 208.561 153.827V82.6988C208.561 78.4581 209.91 74.9885 212.609 72.2898C215.5 69.3985 219.066 67.9528 223.307 67.9528C227.548 67.9528 231.017 69.3985 233.716 72.2898C236.607 74.9885 238.053 78.4581 238.053 82.6988V153.827C238.053 164.621 240.077 173.584 244.125 180.716C248.173 187.656 253.666 192.86 260.606 196.33C267.545 199.607 275.352 201.245 284.026 201.245C292.315 201.245 299.639 199.607 306 196.33C312.554 193.053 317.759 188.62 321.614 183.03C325.469 177.44 327.397 171.175 327.397 164.236H345.612C345.612 176.187 342.624 186.981 336.649 196.619C330.866 206.257 322.867 213.871 312.651 219.461C302.627 225.051 291.158 227.846 278.243 227.846ZM342.143 226.4C337.902 226.4 334.336 225.051 331.444 222.352C328.746 219.461 327.397 215.895 327.397 211.654V82.6988C327.397 78.2654 328.746 74.6993 331.444 72.0007C334.336 69.3021 337.902 67.9528 342.143 67.9528C346.576 67.9528 350.142 69.3021 352.841 72.0007C355.539 74.6993 356.889 78.2654 356.889 82.6988V211.654C356.889 215.895 355.539 219.461 352.841 222.352C350.142 225.051 346.576 226.4 342.143 226.4Z" fill="#6EB883"/>
</svg>
