<svg width="643" height="248" viewBox="0 0 643 248" fill="none" xmlns="http://www.w3.org/2000/svg">
<path d="M195.939 224.451C192.184 224.451 189.027 223.256 186.467 220.867C184.078 218.307 182.883 215.15 182.883 211.395V138.179C182.883 127.427 180.238 119.491 174.947 114.371C169.656 109.08 162.744 106.435 154.211 106.435C145.336 106.435 137.998 109.507 132.195 115.651C126.563 121.795 123.747 129.646 123.747 139.203H102.499C102.499 128.11 104.888 118.382 109.667 110.019C114.446 101.486 121.102 94.8296 129.635 90.0509C138.339 85.2722 148.238 82.8829 159.331 82.8829C169.059 82.8829 177.678 85.0162 185.187 89.2829C192.696 93.5496 198.499 99.8642 202.595 108.227C206.862 116.419 208.995 126.403 208.995 138.179V211.395C208.995 215.15 207.8 218.307 205.411 220.867C203.022 223.256 199.864 224.451 195.939 224.451ZM25.1871 224.451C21.4324 224.451 18.2751 223.256 15.7151 220.867C13.3258 218.307 12.1311 215.15 12.1311 211.395V97.4749C12.1311 93.5496 13.3258 90.3922 15.7151 88.0029C18.2751 85.6136 21.4324 84.4189 25.1871 84.4189C29.1124 84.4189 32.2698 85.6136 34.6591 88.0029C37.0484 90.3922 38.2431 93.5496 38.2431 97.4749V211.395C38.2431 215.15 37.0484 218.307 34.6591 220.867C32.2698 223.256 29.1124 224.451 25.1871 224.451ZM110.691 224.451C106.936 224.451 103.779 223.256 101.219 220.867C98.8298 218.307 97.6351 215.15 97.6351 211.395V138.179C97.6351 127.427 94.9898 119.491 89.6991 114.371C84.4084 109.08 77.4964 106.435 68.9631 106.435C60.0884 106.435 52.7498 109.507 46.9471 115.651C41.1444 121.795 38.2431 129.646 38.2431 139.203H22.1151C22.1151 128.11 24.3338 118.382 28.7711 110.019C33.2084 101.486 39.3524 94.8296 47.2031 90.0509C55.0538 85.2722 64.0138 82.8829 74.0831 82.8829C83.8111 82.8829 92.4298 85.0162 99.9391 89.2829C107.448 93.5496 113.251 99.8642 117.347 108.227C121.614 116.419 123.747 126.403 123.747 138.179V211.395C123.747 215.15 122.552 218.307 120.163 220.867C117.774 223.256 114.616 224.451 110.691 224.451Z" fill="#44E672"/>
<path d="M22.2008 246.525C23.3984 248.18 25.8638 248.18 27.0615 246.525L48.6872 216.642C50.1228 214.658 48.7055 211.883 46.2569 211.883H3.00533C0.556703 211.883 -0.86057 214.658 0.574983 216.642L22.2008 246.525Z" fill="#44E672"/>
<path d="M254.787 224.963C240.963 224.963 228.76 221.976 218.179 216.003C207.598 209.859 199.235 201.496 193.091 190.915C187.118 180.163 184.131 167.875 184.131 154.051C184.131 140.056 187.118 127.768 193.091 117.187C199.235 106.435 207.598 98.0722 218.179 92.0989C228.76 85.9549 240.963 82.8829 254.787 82.8829C268.44 82.8829 280.558 85.9549 291.139 92.0989C301.72 98.0722 309.998 106.435 315.971 117.187C322.115 127.768 325.187 140.056 325.187 154.051C325.187 167.875 322.2 180.163 316.227 190.915C310.254 201.496 301.976 209.859 291.395 216.003C280.814 221.976 268.611 224.963 254.787 224.963ZM254.787 201.923C263.662 201.923 271.512 199.875 278.339 195.779C285.166 191.683 290.456 186.051 294.211 178.883C298.136 171.715 300.099 163.438 300.099 154.051C300.099 144.664 298.136 136.387 294.211 129.219C290.456 121.88 285.166 116.163 278.339 112.067C271.512 107.971 263.662 105.923 254.787 105.923C245.912 105.923 238.062 107.971 231.235 112.067C224.408 116.163 219.032 121.88 215.107 129.219C211.182 136.387 209.219 144.664 209.219 154.051C209.219 163.438 211.182 171.715 215.107 178.883C219.032 186.051 224.408 191.683 231.235 195.779C238.062 199.875 245.912 201.923 254.787 201.923Z" fill="#44E672"/>
<path fill-rule="evenodd" clip-rule="evenodd" d="M255.131 175.883C267.281 175.883 277.131 166.033 277.131 153.883C277.131 141.733 267.281 131.883 255.131 131.883C242.981 131.883 233.131 141.733 233.131 153.883C233.131 166.033 242.981 175.883 255.131 175.883ZM255.131 183.883C271.7 183.883 285.131 170.451 285.131 153.883C285.131 137.314 271.7 123.883 255.131 123.883C238.563 123.883 225.131 137.314 225.131 153.883C225.131 170.451 238.563 183.883 255.131 183.883Z" fill="#6EB883"/>
<path d="M265.131 153.883C265.131 159.406 260.654 163.883 255.131 163.883C249.608 163.883 245.131 159.406 245.131 153.883C245.131 148.36 249.608 143.883 255.131 143.883C260.654 143.883 265.131 148.36 265.131 153.883Z" fill="#6EB883"/>
<path d="M349.861 225.249C344.571 225.249 340.475 222.433 337.573 216.801L283.301 102.369C281.936 99.468 281.765 96.652 282.789 93.9213C283.984 91.02 286.203 88.8013 289.445 87.2653C292.347 85.7293 295.248 85.4733 298.149 86.4973C301.221 87.5213 303.525 89.484 305.061 92.3853L355.749 201.697H343.461L393.637 92.3853C395.173 89.484 397.477 87.5213 400.549 86.4973C403.792 85.4733 407.035 85.7293 410.277 87.2653C413.349 88.6306 415.397 90.764 416.421 93.6653C417.445 96.5666 417.275 99.468 415.909 102.369L361.637 216.801C359.077 222.433 355.152 225.249 349.861 225.249Z" fill="#44E672"/>
<path d="M454.091 224.963C439.926 224.963 427.296 221.976 416.203 216.003C405.28 209.859 396.662 201.496 390.347 190.915C384.203 180.163 381.131 167.875 381.131 154.051C381.131 140.056 384.032 127.768 389.835 117.187C395.808 106.435 404 98.0722 414.411 92.0989C424.822 85.9549 436.768 82.8829 450.251 82.8829C463.563 82.8829 474.998 85.8696 484.555 91.8429C494.112 97.6456 501.366 105.752 506.315 116.163C511.435 126.403 513.995 138.264 513.995 151.747C513.995 154.99 512.886 157.72 510.667 159.939C508.448 161.987 505.632 163.011 502.219 163.011H399.051V142.531H501.451L490.955 149.699C490.784 141.166 489.078 133.571 485.835 126.915C482.592 120.088 477.984 114.712 472.011 110.787C466.038 106.862 458.784 104.899 450.251 104.899C440.523 104.899 432.16 107.032 425.163 111.299C418.336 115.566 413.131 121.454 409.547 128.963C405.963 136.302 404.171 144.664 404.171 154.051C404.171 163.438 406.304 171.8 410.571 179.139C414.838 186.478 420.726 192.28 428.235 196.547C435.744 200.814 444.363 202.947 454.091 202.947C459.382 202.947 464.758 202.008 470.219 200.131C475.851 198.083 480.374 195.779 483.787 193.219C486.347 191.342 489.078 190.403 491.979 190.403C495.051 190.232 497.696 191.086 499.915 192.963C502.816 195.523 504.352 198.339 504.523 201.411C504.694 204.483 503.328 207.128 500.427 209.347C494.624 213.955 487.371 217.71 478.667 220.611C470.134 223.512 461.942 224.963 454.091 224.963Z" fill="#44E672"/>
<path d="M560.787 224.843C547.475 224.843 535.443 221.771 524.691 215.627C514.11 209.312 505.662 200.779 499.347 190.027C493.203 179.275 490.131 167.158 490.131 153.675C490.131 140.192 492.947 128.16 498.579 117.579C504.382 106.827 512.232 98.3789 522.131 92.2349C532.03 85.9202 543.208 82.7629 555.667 82.7629C565.736 82.7629 575.038 84.8962 583.571 89.1629C592.104 93.2589 599.272 98.8909 605.075 106.059V36.9389C605.075 33.0136 606.27 29.8562 608.659 27.4669C611.219 25.0776 614.376 23.8829 618.131 23.8829C622.056 23.8829 625.214 25.0776 627.603 27.4669C629.992 29.8562 631.187 33.0136 631.187 36.9389V153.675C631.187 167.158 628.03 179.275 621.715 190.027C615.571 200.779 607.208 209.312 596.627 215.627C586.046 221.771 574.099 224.843 560.787 224.843ZM560.787 201.803C569.491 201.803 577.256 199.755 584.083 195.659C590.91 191.392 596.286 185.59 600.211 178.251C604.136 170.912 606.099 162.72 606.099 153.675C606.099 144.459 604.136 136.267 600.211 129.099C596.286 121.931 590.91 116.299 584.083 112.203C577.256 107.936 569.491 105.803 560.787 105.803C552.254 105.803 544.488 107.936 537.491 112.203C530.664 116.299 525.203 121.931 521.107 129.099C517.182 136.267 515.219 144.459 515.219 153.675C515.219 162.72 517.182 170.912 521.107 178.251C525.203 185.59 530.664 191.392 537.491 195.659C544.488 199.755 552.254 201.803 560.787 201.803Z" fill="#44E672"/>
<path d="M615.201 1.24119C616.398 -0.413733 618.864 -0.41373 620.061 1.2412L641.687 31.1241C643.123 33.1078 641.706 35.8829 639.257 35.8829H596.005C593.557 35.8829 592.139 33.1078 593.575 31.1241L615.201 1.24119Z" fill="#44E672"/>
</svg>
